<?xml version="1.0" standalone="no"?>
<!DOCTYPE svg PUBLIC "-//W3C//DTD SVG 20010904//EN"
 "http://www.w3.org/TR/2001/REC-SVG-20010904/DTD/svg10.dtd">
<svg version="1.0" xmlns="http://www.w3.org/2000/svg"
 width="56pt" height="56pt" viewBox="0 0 1500 1000"
 preserveAspectRatio="xMidYMid meet">

<g transform="translate(0.000000,1000.000000) scale(0.100000,-0.100000)"
fill="#000000" stroke="none">
<path d="M4705 6928 c-3 -7 -4 -209 -3 -448 l3 -435 775 -5 775 -5 43 -23 c55
-29 102 -96 124 -175 20 -71 24 -302 7 -377 -15 -68 -58 -148 -93 -175 -68
-51 -40 -50 -861 -55 l-770 -5 -3 -450 c-1 -247 0 -459 3 -471 4 -19 56 -82
159 -194 23 -25 145 -162 271 -304 127 -143 262 -295 300 -338 39 -43 135
-152 215 -242 l145 -164 618 -1 c353 -1 617 3 615 8 -1 5 -37 46 -78 92 -41
46 -163 180 -270 299 -107 119 -281 313 -387 431 -105 118 -200 223 -210 234
-82 87 -163 187 -158 195 4 6 94 10 235 10 126 0 252 5 282 11 139 27 211 54
333 122 158 87 310 259 415 467 61 121 65 129 83 190 59 191 72 284 72 515 0
356 -62 578 -233 840 -132 201 -344 371 -521 417 -188 49 -138 47 -1039 47
-665 1 -844 -2 -847 -11z"/>
<path d="M7600 6490 l0 -450 755 0 c813 0 808 0 875 -52 142 -111 146 -580 6
-700 -64 -55 -27 -53 -863 -56 l-773 -3 0 -471 0 -471 67 -76 c37 -42 72 -80
77 -86 6 -5 43 -46 81 -90 39 -44 72 -82 75 -85 3 -3 59 -66 125 -140 66 -74
160 -180 210 -236 49 -55 173 -193 275 -307 l185 -207 613 0 c336 0 612 3 612
8 0 7 -86 104 -310 352 -42 47 -94 105 -116 130 -21 25 -43 50 -49 56 -29 31
-156 172 -172 190 -10 12 -54 61 -99 110 -44 49 -98 109 -120 134 -21 25 -59
67 -84 94 -25 27 -49 54 -55 60 -5 6 -32 35 -59 65 -38 41 -46 55 -35 62 8 5
114 9 236 9 215 0 268 5 383 36 99 27 214 81 295 139 173 124 352 373 420 585
10 30 22 64 26 75 50 133 77 531 49 714 -42 265 -124 468 -261 649 -171 227
-367 351 -635 401 -42 8 -316 11 -897 11 l-837 0 0 -450z"/>
</g>
</svg>

