<svg xmlns="http://www.w3.org/2000/svg" data-name="Layer 1" viewBox="0 0 24 24" id="live"><path fill="#15aee5" d="M20.5,1.25H3.5A2.257,2.257,0,0,0,1.25,3.509V15.58A2.257,2.257,0,0,0,3.5,17.839a.756.756,0,0,1,.75.76v1.889a2.224,2.224,0,0,0,1.4,2.09,2.284,2.284,0,0,0,.868.175,2.212,2.212,0,0,0,1.578-.67l4-4.023a.747.747,0,0,1,.528-.221H20.5a2.257,2.257,0,0,0,2.25-2.259V3.509A2.257,2.257,0,0,0,20.5,1.25Z"></path><path fill="#fff" d="M17.438,6.392a.749.749,0,0,0-.675-.1L14.75,6.96A1.753,1.753,0,0,0,13,5.25H8A1.752,1.752,0,0,0,6.25,7v5A1.752,1.752,0,0,0,8,13.75h5a1.753,1.753,0,0,0,1.75-1.71l2.013.672A.751.751,0,0,0,17.75,12V7A.747.747,0,0,0,17.438,6.392Z"></path><path fill="#0e1519" d="M6.514,22.753a2.284,2.284,0,0,1-.868-.175,2.224,2.224,0,0,1-1.4-2.09V18.6a.756.756,0,0,0-.75-.76A2.257,2.257,0,0,1,1.25,15.58V3.509A2.257,2.257,0,0,1,3.5,1.25h17a2.257,2.257,0,0,1,2.25,2.259V15.58a2.257,2.257,0,0,1-2.25,2.259H18a.75.75,0,0,1,0-1.5h2.5a.755.755,0,0,0,.75-.759V3.509a.755.755,0,0,0-.75-.759H3.5a.755.755,0,0,0-.75.759V15.58a.755.755,0,0,0,.75.759A2.257,2.257,0,0,1,5.75,18.6v1.889a.742.742,0,0,0,.467.7.729.729,0,0,0,.811-.165l4-4.023a2.257,2.257,0,0,1,1.592-.664.75.75,0,1,1,0,1.5.747.747,0,0,0-.528.221l-4,4.023A2.212,2.212,0,0,1,6.514,22.753Z"></path><path fill="#0e1519" d="M16,17.839H15a.75.75,0,0,1,0-1.5h1a.75.75,0,0,1,0,1.5Z"></path></svg>