<svg version="1.1" id="Layer_1" xmlns="http://www.w3.org/2000/svg" xmlns:xlink="http://www.w3.org/1999/xlink" x="0px" y="0px"
	 width="100%" viewBox="0 0 580 386" enable-background="new 0 0 580 386" xml:space="preserve">
<path fill="#FFFFFF" opacity="1.000000" stroke="none" 
	d="
M306.000000,387.000000 
	C204.000031,387.000000 102.500046,387.000000 1.000054,387.000000 
	C1.000036,258.333374 1.000036,129.666779 1.000018,1.000124 
	C194.333237,1.000082 387.666473,1.000082 580.999756,1.000041 
	C580.999878,129.666534 580.999878,258.333069 580.999939,386.999817 
	C489.500000,387.000000 398.000000,387.000000 306.000000,387.000000 
M244.503326,284.363434 
	C244.684631,284.302460 244.865921,284.241486 245.746933,284.444092 
	C246.480240,284.363281 247.213531,284.282440 248.685623,284.234100 
	C248.846390,283.806091 249.007172,283.378082 249.424316,282.072235 
	C249.341461,278.734802 249.258606,275.397400 249.397186,271.135529 
	C249.323059,261.400909 249.248932,251.666260 249.459335,241.179428 
	C249.539459,240.687546 249.445572,239.927185 249.726471,239.745132 
	C252.685638,237.827515 264.295471,239.174057 267.006683,241.572128 
	C282.190460,255.002365 297.362671,268.446472 312.657959,281.748840 
	C314.267639,283.148773 316.600677,284.259796 318.693695,284.449310 
	C323.188751,284.856293 327.746246,284.574188 332.153687,284.574188 
	C330.476562,282.590973 329.096252,280.489685 327.277954,278.884491 
	C315.192566,268.215485 302.974274,257.696899 290.893860,247.022293 
	C288.070007,244.527069 285.610352,241.619690 283.479156,238.995865 
	C283.645020,238.967438 283.810852,238.938995 284.652191,239.094818 
	C285.111237,239.021255 285.570312,238.947708 286.672272,239.009521 
	C287.105408,238.972473 287.538574,238.935410 288.653503,239.041504 
	C289.111603,238.989487 289.569702,238.937454 290.757721,238.999817 
	C291.493530,238.961578 292.229340,238.923340 293.886536,239.050583 
	C298.265106,239.003479 302.643646,238.956360 307.497589,238.987747 
	C307.497589,238.987747 307.964569,238.869293 308.605438,239.114380 
	C324.847839,253.411255 341.079254,267.720703 357.355377,281.979065 
	C358.546936,283.022919 360.024231,284.344727 361.433594,284.427094 
	C366.504211,284.723389 371.602692,284.543457 377.865814,284.543457 
	C360.289978,268.928619 343.669312,254.162384 327.009308,239.361206 
	C327.505615,238.949936 327.727509,238.620590 328.013336,238.549911 
	C352.154785,232.579819 366.668457,218.112991 369.863983,192.727798 
	C372.194427,174.215149 363.170593,153.919846 344.480713,143.192245 
	C340.816895,141.089325 338.663422,138.646683 336.913116,134.811111 
	C328.720306,116.857628 314.991089,106.092392 294.137543,103.871796 
	C292.403198,103.859459 290.668823,103.847122 288.042023,103.549698 
	C274.124115,103.531822 260.206085,103.465965 246.288391,103.510582 
	C234.206451,103.549309 222.124939,103.713081 209.496384,103.641502 
	C209.315857,103.706612 209.135315,103.771721 208.520874,103.602333 
	C208.520874,103.602333 208.062881,103.785431 207.148972,103.567062 
	C206.205231,104.479347 204.536011,105.329285 204.451263,106.315399 
	C204.176941,109.507378 204.484375,112.749359 204.303665,116.712875 
	C204.391678,117.483543 204.479675,118.254204 204.338333,119.793770 
	C204.421371,122.253975 204.504395,124.714180 204.319687,128.056732 
	C204.304993,175.000824 204.288391,221.944916 204.288483,268.889008 
	C204.288483,269.874573 204.481171,270.860168 204.353821,272.749359 
	C204.433350,275.223755 204.512878,277.698181 204.305984,280.806091 
	C203.801208,283.508057 204.640930,284.931061 207.662384,284.564087 
	C209.772797,284.307770 211.908508,284.259552 214.879028,284.332520 
	C215.212906,282.234497 215.546783,280.136475 216.046219,277.280396 
	C215.990829,276.510590 215.935440,275.740753 215.995850,274.043488 
	C215.949799,252.377792 215.903748,230.712097 216.048096,208.180832 
	C216.652008,207.490021 217.243027,206.212250 217.861832,206.198654 
	C224.468842,206.053406 231.080261,206.108383 237.678635,206.108383 
	C237.860519,207.733566 237.989105,208.882507 237.996643,210.957809 
	C238.037338,231.291870 238.078033,251.625931 237.947876,272.860168 
	C237.994843,275.908539 238.041824,278.956940 237.956604,282.805878 
	C238.646805,283.266876 239.337006,283.727844 240.779053,284.482513 
	C241.839035,284.382263 242.899033,284.282013 244.503326,284.363434 
z"/>
<path fill="#313D48" opacity="1.000000" stroke="none" 
	d="
M282.983154,238.901917 
	C285.610352,241.619690 288.070007,244.527069 290.893860,247.022293 
	C302.974274,257.696899 315.192566,268.215485 327.277954,278.884491 
	C329.096252,280.489685 330.476562,282.590973 332.153687,284.574188 
	C327.746246,284.574188 323.188751,284.856293 318.693695,284.449310 
	C316.600677,284.259796 314.267639,283.148773 312.657959,281.748840 
	C297.362671,268.446472 282.190460,255.002365 267.006683,241.572128 
	C264.295471,239.174057 252.685638,237.827515 249.726471,239.745132 
	C249.445572,239.927185 249.539459,240.687546 248.986374,241.829041 
	C248.373154,251.817551 248.215240,261.156281 248.139862,270.495667 
	C248.135681,271.014282 248.814713,271.538422 249.175751,272.059967 
	C249.258606,275.397400 249.341461,278.734802 249.024628,282.645294 
	C248.398895,283.546112 248.172867,283.873871 247.946838,284.201630 
	C247.213531,284.282440 246.480240,284.363281 245.298676,284.120422 
	C244.553268,283.925110 244.256149,284.053467 243.959015,284.181793 
	C242.899033,284.282013 241.839035,284.382263 240.366089,284.003021 
	C239.331680,283.017456 238.710236,282.511383 238.088791,282.005310 
	C238.041824,278.956940 237.994843,275.908539 238.312561,272.106323 
	C238.773010,251.487579 238.875931,231.622650 238.928635,211.757614 
	C238.930161,211.182938 238.399963,210.606873 238.117706,210.031448 
	C237.989105,208.882507 237.860519,207.733566 237.678635,206.108383 
	C231.080261,206.108383 224.468842,206.053406 217.861832,206.198654 
	C217.243027,206.212250 216.652008,207.490021 215.678268,208.920471 
	C215.215775,230.855728 215.116379,252.051300 215.066376,273.247009 
	C215.065033,273.821014 215.596863,274.396271 215.880066,274.970947 
	C215.935440,275.740753 215.990829,276.510590 215.702759,277.898956 
	C214.917160,280.384491 214.475037,282.251434 214.032913,284.118408 
	C211.908508,284.259552 209.772797,284.307770 207.662384,284.564087 
	C204.640930,284.931061 203.801208,283.508057 204.801376,280.245361 
	C205.059174,277.071686 204.821564,274.458710 204.583969,271.845734 
	C204.481171,270.860168 204.288483,269.874573 204.288483,268.889008 
	C204.288391,221.944916 204.304993,175.000824 204.798370,127.382980 
	C205.040588,124.147774 204.804123,121.586319 204.567657,119.024872 
	C204.479675,118.254204 204.391678,117.483543 204.771866,116.190437 
	C205.493790,113.938858 205.617004,112.177559 206.033249,110.488464 
	C206.591064,108.224861 207.375656,106.017143 208.062881,103.785431 
	C208.062881,103.785431 208.520874,103.602333 208.839813,103.907402 
	C209.453583,104.082176 209.748413,103.951889 210.043228,103.821594 
	C222.124939,103.713081 234.206451,103.549309 246.288391,103.510582 
	C260.206085,103.465965 274.124115,103.531822 288.712250,103.996002 
	C291.249786,104.320045 293.117126,104.197784 294.984436,104.075523 
	C314.991089,106.092392 328.720306,116.857628 336.913116,134.811111 
	C338.663422,138.646683 340.816895,141.089325 344.480713,143.192245 
	C363.170593,153.919846 372.194427,174.215149 369.863983,192.727798 
	C366.668457,218.112991 352.154785,232.579819 328.013336,238.549911 
	C327.727509,238.620590 327.505615,238.949936 327.009308,239.361206 
	C343.669312,254.162384 360.289978,268.928619 377.865814,284.543457 
	C371.602692,284.543457 366.504211,284.723389 361.433594,284.427094 
	C360.024231,284.344727 358.546936,283.022919 357.355377,281.979065 
	C341.079254,267.720703 324.847839,253.411255 308.200073,238.833374 
	C307.537201,238.671310 307.279724,238.790283 307.022217,238.909241 
	C302.643646,238.956360 298.265106,239.003479 293.248840,238.727936 
	C291.750031,238.565353 290.888916,238.725403 290.027802,238.885437 
	C289.569702,238.937454 289.111603,238.989487 288.179321,238.749542 
	C287.146545,238.596451 286.587952,238.735306 286.029358,238.874146 
	C285.570312,238.947708 285.111237,239.021255 284.235352,238.833603 
	C283.540070,238.682236 283.261627,238.792084 282.983154,238.901917 
M322.995422,132.998474 
	C322.995422,132.998474 322.814240,133.179260 322.824280,132.407745 
	C322.063538,131.686523 321.302765,130.965302 320.181122,130.047165 
	C319.981476,129.843445 319.864014,129.600082 319.650269,128.748093 
	C319.334076,128.521820 319.017883,128.295532 318.140381,127.758751 
	C309.988403,119.821487 300.289734,115.595383 288.849945,115.466682 
	C283.575775,115.407356 278.302826,115.237862 272.845642,114.750015 
	C272.558136,114.858276 272.270660,114.966537 271.064789,115.267761 
	C253.871552,115.224487 236.678146,115.210175 219.485321,115.101990 
	C217.286621,115.088158 215.563171,115.175117 215.539993,118.188957 
	C215.653687,118.450638 215.767395,118.712326 216.029800,119.655960 
	C215.975601,120.114998 215.921402,120.574028 215.363632,121.499290 
	C215.533203,122.988350 215.702774,124.477409 216.034729,126.649475 
	C215.980240,127.111092 215.925751,127.572716 215.315475,128.645416 
	C215.222351,149.843216 215.122452,171.040985 215.072113,192.238892 
	C215.070770,192.812485 215.604614,193.387360 216.215576,194.740723 
	C223.575333,196.404968 230.890991,196.823975 238.667618,193.372040 
	C238.766678,177.835739 238.874832,162.299484 238.928848,146.763031 
	C238.930847,146.188354 238.404343,145.611862 237.955444,144.165695 
	C238.009079,142.101868 238.062714,140.038055 238.436203,137.840836 
	C238.502502,137.747208 238.645767,137.607834 238.621948,137.567719 
	C238.509689,137.378769 238.351669,137.217010 238.544830,136.275269 
	C266.010651,136.302048 293.476501,136.328827 321.109711,136.937286 
	C322.114777,136.703690 323.119843,136.470093 324.013000,136.146469 
	C324.013000,136.146469 324.102112,136.033829 324.504791,135.548233 
	C323.939453,134.756958 323.374146,133.965683 322.995422,132.998474 
M260.964966,199.271057 
	C261.012909,198.507172 261.060883,197.743271 261.598907,196.634857 
	C261.736969,196.063705 261.875031,195.492554 262.923004,194.739594 
	C266.948273,194.826752 270.973541,194.913910 275.581207,195.600998 
	C279.955231,195.733582 284.332367,196.016327 288.701691,195.924866 
	C290.449707,195.888275 292.180450,195.027084 294.567688,194.171631 
	C316.267059,191.570328 331.790039,171.271240 328.476898,149.636414 
	C327.014923,149.168594 325.483612,148.678589 323.792175,147.816772 
	C323.517212,147.916962 323.242218,148.017166 322.041504,148.238037 
	C316.352905,148.133804 310.664276,148.029587 304.385956,147.340851 
	C289.181854,147.238861 273.977753,147.127655 258.773499,147.070343 
	C258.196442,147.068161 257.617462,147.587097 256.203796,148.032867 
	C253.840805,148.343796 251.477798,148.654739 248.472000,149.519760 
	C248.317047,150.153290 248.027344,150.786652 248.026611,151.420349 
	C248.000061,174.442444 247.983078,197.464615 248.046707,220.486542 
	C248.050003,221.676956 248.774475,222.865356 249.417023,224.707748 
	C249.474075,230.146713 254.115707,226.083832 256.491791,228.509949 
	C267.123810,228.646469 277.755676,228.798599 288.388153,228.872864 
	C288.912048,228.876511 289.440674,228.201019 290.570160,227.459839 
	C291.957336,227.361923 293.344482,227.264008 295.403870,227.118637 
	C288.208588,220.689865 281.695312,214.640274 274.888916,208.940659 
	C273.040222,207.392593 270.307159,206.900604 267.700012,205.481186 
	C267.139801,205.629074 266.579590,205.776962 265.493134,206.079788 
	C265.319885,206.021301 265.146606,205.962799 264.515350,205.392670 
	C263.380890,205.263992 262.246460,205.135315 260.966919,204.256775 
	C261.013275,203.498108 261.059662,202.739426 261.549469,201.709000 
	C261.406067,201.147324 261.262695,200.585648 260.964966,199.271057 
M328.364258,226.073044 
	C344.274597,221.936676 356.461365,208.530411 357.964264,193.511078 
	C359.599731,177.166733 352.630463,161.543427 341.541290,156.144958 
	C338.212830,185.972504 321.476288,202.786545 291.159393,207.077347 
	C296.648346,212.031677 302.067291,216.041336 306.368591,221.017120 
	C312.424500,228.022629 319.584198,228.166870 328.364258,226.073044 
M263.510132,203.401367 
	C263.510132,203.401367 263.584045,203.521957 263.510132,203.401367 
z"/>
<path fill="#1D242A" opacity="1.000000" stroke="none" 
	d="
M215.937958,274.507202 
	C215.596863,274.396271 215.065033,273.821014 215.066376,273.247009 
	C215.116379,252.051300 215.215775,230.855728 215.583069,209.353271 
	C215.903748,230.712097 215.949799,252.377792 215.937958,274.507202 
z"/>
<path fill="#1D242A" opacity="1.000000" stroke="none" 
	d="
M238.057175,210.494629 
	C238.399963,210.606873 238.930161,211.182938 238.928635,211.757614 
	C238.875931,231.622650 238.773010,251.487579 238.397995,271.656250 
	C238.078033,251.625931 238.037338,231.291870 238.057175,210.494629 
z"/>
<path fill="#262F38" opacity="1.000000" stroke="none" 
	d="
M249.286469,271.597748 
	C248.814713,271.538422 248.135681,271.014282 248.139862,270.495667 
	C248.215240,261.156281 248.373154,251.817551 248.844116,242.205139 
	C249.248932,251.666260 249.323059,261.400909 249.286469,271.597748 
z"/>
<path fill="#283138" opacity="1.000000" stroke="none" 
	d="
M207.605927,103.676247 
	C207.375656,106.017143 206.591064,108.224861 206.033249,110.488464 
	C205.617004,112.177559 205.493790,113.938858 204.903870,115.820038 
	C204.484375,112.749359 204.176941,109.507378 204.451263,106.315399 
	C204.536011,105.329285 206.205231,104.479347 207.605927,103.676247 
z"/>
<path fill="#283138" opacity="1.000000" stroke="none" 
	d="
M204.453003,119.409317 
	C204.804123,121.586319 205.040588,124.147774 204.932220,126.941803 
	C204.504395,124.714180 204.421371,122.253975 204.453003,119.409317 
z"/>
<path fill="#1D242A" opacity="1.000000" stroke="none" 
	d="
M214.455963,284.225464 
	C214.475037,282.251434 214.917160,280.384491 215.619965,278.277985 
	C215.546783,280.136475 215.212906,282.234497 214.455963,284.225464 
z"/>
<path fill="#283138" opacity="1.000000" stroke="none" 
	d="
M204.468903,272.297546 
	C204.821564,274.458710 205.059174,277.071686 204.944580,279.928619 
	C204.512878,277.698181 204.433350,275.223755 204.468903,272.297546 
z"/>
<path fill="#272C35" opacity="1.000000" stroke="none" 
	d="
M294.560974,103.973663 
	C293.117126,104.197784 291.249786,104.320045 289.158478,104.138550 
	C290.668823,103.847122 292.403198,103.859459 294.560974,103.973663 
z"/>
<path fill="#262F38" opacity="1.000000" stroke="none" 
	d="
M238.022705,282.405579 
	C238.710236,282.511383 239.331680,283.017456 239.990173,283.856201 
	C239.337006,283.727844 238.646805,283.266876 238.022705,282.405579 
z"/>
<path fill="#1C202B" opacity="1.000000" stroke="none" 
	d="
M290.392761,238.942627 
	C290.888916,238.725403 291.750031,238.565353 292.788147,238.645203 
	C292.229340,238.923340 291.493530,238.961578 290.392761,238.942627 
z"/>
<path fill="#1C202B" opacity="1.000000" stroke="none" 
	d="
M286.350830,238.941833 
	C286.587952,238.735306 287.146545,238.596451 287.838440,238.677979 
	C287.538574,238.935410 287.105408,238.972473 286.350830,238.941833 
z"/>
<path fill="#272C35" opacity="1.000000" stroke="none" 
	d="
M209.769806,103.731552 
	C209.748413,103.951889 209.453583,104.082176 209.056778,104.024651 
	C209.135315,103.771721 209.315857,103.706612 209.769806,103.731552 
z"/>
<path fill="#262F38" opacity="1.000000" stroke="none" 
	d="
M248.316223,284.217865 
	C248.172867,283.873871 248.398895,283.546112 248.896423,283.084229 
	C249.007172,283.378082 248.846390,283.806091 248.316223,284.217865 
z"/>
<path fill="#262F38" opacity="1.000000" stroke="none" 
	d="
M244.231171,284.272614 
	C244.256149,284.053467 244.553268,283.925110 244.948792,283.988647 
	C244.865921,284.241486 244.684631,284.302460 244.231171,284.272614 
z"/>
<path fill="#1C202B" opacity="1.000000" stroke="none" 
	d="
M307.259888,238.948502 
	C307.279724,238.790283 307.537201,238.671310 307.879639,238.710815 
	C307.964569,238.869293 307.497589,238.987747 307.259888,238.948502 
z"/>
<path fill="#1C202B" opacity="1.000000" stroke="none" 
	d="
M283.231140,238.948883 
	C283.261627,238.792084 283.540070,238.682236 283.897644,238.741470 
	C283.810852,238.938995 283.645020,238.967438 283.231140,238.948883 
z"/>
<path fill="#FAFBFB" opacity="1.000000" stroke="none" 
	d="
M274.998810,195.001068 
	C270.973541,194.913910 266.948273,194.826752 262.122650,194.863708 
	C261.251129,195.651688 261.179993,196.315536 261.108826,196.979385 
	C261.060883,197.743271 261.012909,198.507172 260.977295,199.971222 
	C261.028442,201.107834 261.067230,201.544296 261.106049,201.980759 
	C261.059662,202.739426 261.013275,203.498108 261.093323,205.011337 
	C262.470917,205.812042 263.722137,205.858170 264.973358,205.904312 
	C265.146606,205.962799 265.319885,206.021301 266.080414,206.073547 
	C267.105133,206.019516 267.542572,205.971710 267.980011,205.923904 
	C270.307159,206.900604 273.040222,207.392593 274.888916,208.940659 
	C281.695312,214.640274 288.208588,220.689865 295.403870,227.118637 
	C293.344482,227.264008 291.957336,227.361923 289.809570,227.559265 
	C278.013306,227.724457 266.977631,227.790222 255.941971,227.855988 
	C254.115707,226.083832 249.474075,230.146713 249.397247,223.918655 
	C249.390381,217.817169 249.434311,212.504623 249.410660,207.192398 
	C249.324249,187.783432 249.215271,168.374557 249.114807,148.965668 
	C251.477798,148.654739 253.840805,148.343796 257.084137,148.008133 
	C273.634888,147.964050 289.305267,147.944702 304.975677,147.925354 
	C310.664276,148.029587 316.352905,148.133804 322.744324,148.282684 
	C323.615479,148.281097 323.783875,148.234848 323.952271,148.188583 
	C325.483612,148.678589 327.014923,149.168594 328.476898,149.636414 
	C331.790039,171.271240 316.267059,191.570328 293.778992,194.370972 
	C286.993164,194.713898 280.995972,194.857483 274.998810,195.001068 
z"/>
<path fill="#FBFCFB" opacity="1.000000" stroke="none" 
	d="
M319.828766,129.317062 
	C319.864014,129.600082 319.981476,129.843445 320.462158,130.449661 
	C321.433563,131.627853 322.123901,132.403564 322.814240,133.179260 
	C322.814240,133.179260 322.995422,132.998474 322.960938,133.399078 
	C323.318329,134.544403 323.710205,135.289108 324.102112,136.033829 
	C324.102112,136.033829 324.013000,136.146469 323.669006,136.255936 
	C322.530762,136.362137 321.736542,136.358871 320.942322,136.355621 
	C293.476501,136.328827 266.010651,136.302048 238.278976,136.885040 
	C238.013123,137.494797 238.116333,137.974228 238.116333,137.974228 
	C238.062714,140.038055 238.009079,142.101868 237.980255,145.063782 
	C238.033539,161.963150 238.062027,177.964432 238.090515,193.965698 
	C230.890991,196.823975 223.575333,196.404968 216.099426,193.887329 
	C215.945938,171.367386 215.908600,149.700867 215.871262,128.034332 
	C215.925751,127.572716 215.980240,127.111092 216.009979,125.899406 
	C215.945892,123.777245 215.906540,122.405159 215.867203,121.033066 
	C215.921402,120.574028 215.975601,120.114998 216.011414,119.078430 
	C215.993011,118.500900 215.872787,118.029877 215.872787,118.029877 
	C215.563171,115.175117 217.286621,115.088158 219.485321,115.101990 
	C236.678146,115.210175 253.871552,115.224487 271.782166,115.262314 
	C272.676147,115.210693 272.852722,115.164513 273.029327,115.118324 
	C278.302826,115.237862 283.575775,115.407356 288.849945,115.466682 
	C300.289734,115.595383 309.988403,119.821487 318.512878,128.198273 
	C319.199860,128.864227 319.514313,129.090637 319.828766,129.317062 
z"/>
<path fill="#FBFCFC" opacity="1.000000" stroke="none" 
	d="
M327.950989,226.177155 
	C319.584198,228.166870 312.424500,228.022629 306.368591,221.017120 
	C302.067291,216.041336 296.648346,212.031677 291.159393,207.077347 
	C321.476288,202.786545 338.212830,185.972504 341.541290,156.144958 
	C352.630463,161.543427 359.599731,177.166733 357.964264,193.511078 
	C356.461365,208.530411 344.274597,221.936676 327.950989,226.177155 
z"/>
<path fill="#262F38" opacity="1.000000" stroke="none" 
	d="
M248.793396,149.242706 
	C249.215271,168.374557 249.324249,187.783432 249.410660,207.192398 
	C249.434311,212.504623 249.390381,217.817169 249.270325,223.592133 
	C248.774475,222.865356 248.050003,221.676956 248.046707,220.486542 
	C247.983078,197.464615 248.000061,174.442444 248.026611,151.420349 
	C248.027344,150.786652 248.317047,150.153290 248.793396,149.242706 
z"/>
<path fill="#1C202B" opacity="1.000000" stroke="none" 
	d="
M215.593369,128.339874 
	C215.908600,149.700867 215.945938,171.367386 215.936066,193.497772 
	C215.604614,193.387360 215.070770,192.812485 215.072113,192.238892 
	C215.122452,171.040985 215.222351,149.843216 215.593369,128.339874 
z"/>
<path fill="#1D242A" opacity="1.000000" stroke="none" 
	d="
M238.379059,193.668869 
	C238.062027,177.964432 238.033539,161.963150 238.064590,145.499054 
	C238.404343,145.611862 238.930847,146.188354 238.928848,146.763031 
	C238.874832,162.299484 238.766678,177.835739 238.379059,193.668869 
z"/>
<path fill="#1D242A" opacity="1.000000" stroke="none" 
	d="
M304.680817,147.633102 
	C289.305267,147.944702 273.634888,147.964050 257.501923,147.923294 
	C257.617462,147.587097 258.196442,147.068161 258.773499,147.070343 
	C273.977753,147.127655 289.181854,147.238861 304.680817,147.633102 
z"/>
<path fill="#22282E" opacity="1.000000" stroke="none" 
	d="
M256.216888,228.182968 
	C266.977631,227.790222 278.013306,227.724457 289.508057,227.750229 
	C289.440674,228.201019 288.912048,228.876511 288.388153,228.872864 
	C277.755676,228.798599 267.123810,228.646469 256.216888,228.182968 
z"/>
<path fill="#22282E" opacity="1.000000" stroke="none" 
	d="
M275.290009,195.301025 
	C280.995972,194.857483 286.993164,194.713898 293.454712,194.555786 
	C292.180450,195.027084 290.449707,195.888275 288.701691,195.924866 
	C284.332367,196.016327 279.955231,195.733582 275.290009,195.301025 
z"/>
<path fill="#52595F" opacity="1.000000" stroke="none" 
	d="
M321.026001,136.646454 
	C321.736542,136.358871 322.530762,136.362137 323.724945,136.300934 
	C323.119843,136.470093 322.114777,136.703690 321.026001,136.646454 
z"/>
<path fill="#1C202B" opacity="1.000000" stroke="none" 
	d="
M215.615417,121.266174 
	C215.906540,122.405159 215.945892,123.777245 215.928802,125.557907 
	C215.702774,124.477409 215.533203,122.988350 215.615417,121.266174 
z"/>
<path fill="#52595F" opacity="1.000000" stroke="none" 
	d="
M322.819275,132.793503 
	C322.123901,132.403564 321.433563,131.627853 320.642639,130.548111 
	C321.302765,130.965302 322.063538,131.686523 322.819275,132.793503 
z"/>
<path fill="#52595F" opacity="1.000000" stroke="none" 
	d="
M324.303467,135.791031 
	C323.710205,135.289108 323.318329,134.544403 322.867615,133.487045 
	C323.374146,133.965683 323.939453,134.756958 324.303467,135.791031 
z"/>
<path fill="#22282E" opacity="1.000000" stroke="none" 
	d="
M264.744354,205.648499 
	C263.722137,205.858170 262.470917,205.812042 261.165833,205.386261 
	C262.246460,205.135315 263.380890,205.263992 264.744354,205.648499 
z"/>
<path fill="#22282E" opacity="1.000000" stroke="none" 
	d="
M261.353882,196.807129 
	C261.179993,196.315536 261.251129,195.651688 261.667694,194.954620 
	C261.875031,195.492554 261.736969,196.063705 261.353882,196.807129 
z"/>
<path fill="#22282E" opacity="1.000000" stroke="none" 
	d="
M261.327759,201.844879 
	C261.067230,201.544296 261.028442,201.107834 261.054504,200.347672 
	C261.262695,200.585648 261.406067,201.147324 261.327759,201.844879 
z"/>
<path fill="#22282E" opacity="1.000000" stroke="none" 
	d="
M267.840027,205.702545 
	C267.542572,205.971710 267.105133,206.019516 266.343536,205.996094 
	C266.579590,205.776962 267.139801,205.629074 267.840027,205.702545 
z"/>
<path fill="#1D242A" opacity="1.000000" stroke="none" 
	d="
M238.276276,137.907532 
	C238.116333,137.974228 238.013123,137.494797 238.111542,137.270172 
	C238.351669,137.217010 238.509689,137.378769 238.621948,137.567719 
	C238.645767,137.607834 238.502502,137.747208 238.276276,137.907532 
z"/>
<path fill="#1D242A" opacity="1.000000" stroke="none" 
	d="
M323.872223,148.002686 
	C323.783875,148.234848 323.615479,148.281097 323.207184,148.222351 
	C323.242218,148.017166 323.517212,147.916962 323.872223,148.002686 
z"/>
<path fill="#212A34" opacity="1.000000" stroke="none" 
	d="
M272.937500,114.934174 
	C272.852722,115.164513 272.676147,115.210693 272.241364,115.165833 
	C272.270660,114.966537 272.558136,114.858276 272.937500,114.934174 
z"/>
<path fill="#1C202B" opacity="1.000000" stroke="none" 
	d="
M215.706390,118.109421 
	C215.872787,118.029877 215.993011,118.500900 215.937042,118.737457 
	C215.767395,118.712326 215.653687,118.450638 215.706390,118.109421 
z"/>
<path fill="#22282E" opacity="1.000000" stroke="none" 
	d="
M263.547089,203.461670 
	C263.584045,203.521957 263.510132,203.401367 263.547089,203.461670 
z"/>
<path fill="#52595F" opacity="1.000000" stroke="none" 
	d="
M319.739502,129.032578 
	C319.514313,129.090637 319.199860,128.864227 318.793549,128.353531 
	C319.017883,128.295532 319.334076,128.521820 319.739502,129.032578 
z"/>
</svg>