<svg version="1.1" id="Layer_1" xmlns="http://www.w3.org/2000/svg" xmlns:xlink="http://www.w3.org/1999/xlink" x="0px" y="0px"
	 width="100%" viewBox="0 0 980 980" enable-background="new 0 0 980 980" xml:space="preserve">
<path fill="#050706" opacity="1.000000" stroke="none" 
	d="
M644.000000,981.000000 
	C430.833344,981.000000 218.166672,980.988464 5.500046,981.093506 
	C1.750774,981.095398 0.905714,980.249084 0.906880,976.500000 
	C1.007570,652.833313 1.007570,329.166656 0.906880,5.500029 
	C0.905714,1.750893 1.750893,0.905712 5.500029,0.906878 
	C329.166656,1.007583 652.833313,1.007583 976.500000,0.906879 
	C980.249084,0.905712 981.094299,1.750892 981.093140,5.500029 
	C980.992432,329.166656 980.992432,652.833313 981.093140,976.500000 
	C981.094299,980.249084 980.249573,981.098511 976.499878,981.094543 
	C865.833313,980.977966 755.166687,981.000000 644.000000,981.000000 
z"/>
<path fill="#FDFDFD" opacity="1.000000" stroke="none" 
	d="
M578.801697,603.000061 
	C578.802734,596.835449 578.781738,591.170532 578.821106,585.506165 
	C578.830322,584.189514 578.527771,582.290955 579.248352,581.651855 
	C584.474304,577.016296 579.865662,575.169983 576.938293,572.871216 
	C567.258789,565.270081 557.552368,557.703186 547.796936,550.076721 
	C546.171997,551.483154 546.963684,553.247192 546.962036,554.748230 
	C546.910034,601.064575 546.895813,647.380981 546.963318,693.697266 
	C546.967651,696.667480 546.316040,699.022644 544.429749,701.434509 
	C530.192261,719.639343 516.109924,737.965515 501.126678,757.356995 
	C501.126678,754.412170 501.126740,752.700378 501.126648,750.988586 
	C501.118683,635.195129 501.134247,519.401672 501.011383,403.608307 
	C501.006805,399.279968 501.758820,397.751251 506.553528,397.775665 
	C548.538025,397.989319 590.524231,397.951355 632.509338,397.815460 
	C636.453857,397.802704 637.833374,398.594299 637.817688,402.880829 
	C637.650757,448.364594 637.665466,493.849274 637.787964,539.333252 
	C637.797607,542.922974 636.738342,543.900024 633.294861,543.752747 
	C627.355469,543.498657 621.397339,543.682373 614.059143,543.682373 
	C621.530701,549.570801 627.879150,554.771729 634.461182,559.658020 
	C636.879944,561.453613 637.598999,563.445312 637.834167,566.323608 
	C638.593079,575.614380 636.440430,583.322083 630.219299,590.926880 
	C613.148315,611.794556 597.018738,633.432312 580.526306,654.772888 
	C580.244568,655.137451 580.086060,655.597229 578.801697,655.623657 
	C578.801697,638.249146 578.801697,620.874573 578.801697,603.000061 
z"/>
<path fill="#FDFDFD" opacity="1.000000" stroke="none" 
	d="
M382.234558,629.786133 
	C370.207886,614.219543 358.435547,598.906494 346.552155,583.680054 
	C344.909821,581.575623 344.238556,579.484253 344.241150,576.837952 
	C344.297913,518.848755 344.333282,460.859314 344.185303,402.870392 
	C344.174408,398.605957 345.468933,397.727081 349.484467,397.740662 
	C391.809479,397.883759 434.135345,397.884155 476.460358,397.740814 
	C480.211853,397.728088 481.095306,398.663177 481.083679,402.394684 
	C480.941833,447.885834 480.937805,493.377747 481.089142,538.868835 
	C481.102478,542.871643 480.011780,543.963196 476.106476,543.763977 
	C469.633698,543.433716 463.131805,543.674133 455.238434,543.674133 
	C462.359467,549.284546 468.338440,554.418945 474.764038,558.915283 
	C479.393921,562.155029 481.192139,565.702026 481.164948,571.603821 
	C480.888489,631.590881 480.998627,691.579773 481.000427,751.568115 
	C481.000488,753.013611 481.000427,754.459106 481.000427,756.199280 
	C478.971130,755.616943 478.463287,754.103760 477.609894,753.003967 
	C464.339142,735.901611 451.149750,718.735413 437.777283,701.713135 
	C435.786346,699.178772 435.013000,696.719910 435.020630,693.564392 
	C435.103943,659.237610 435.023407,624.910461 435.144196,590.583923 
	C435.155304,587.423889 434.278137,585.411499 431.765808,583.479126 
	C418.961853,573.631287 406.307465,563.589050 393.574890,553.647949 
	C392.719238,552.979858 392.016968,551.891418 390.182129,552.109375 
	C390.182129,580.909851 390.182129,609.739746 390.182129,639.978943 
	C387.033356,635.940491 384.743561,633.003784 382.234558,629.786133 
z"/>
<path fill="#FBFBFB" opacity="1.000000" stroke="none" 
	d="
M436.999847,377.787384 
	C419.999878,377.787262 403.499023,377.697388 387.000763,377.863586 
	C383.746948,377.896362 382.094116,377.109283 380.669189,373.923065 
	C371.013123,352.331726 357.993378,332.901855 342.279297,315.231781 
	C340.131317,312.816437 338.151001,311.584869 334.715149,311.841522 
	C329.375946,312.240356 324.819611,308.434601 324.180908,303.891876 
	C323.620178,299.903717 326.310669,296.069366 330.789520,294.473663 
	C335.537872,292.781952 341.340515,294.560333 343.602753,298.511169 
	C345.416687,301.679138 345.550842,304.945831 343.115845,307.823975 
	C341.594513,309.622192 341.780914,310.903015 343.281006,312.516235 
	C351.939209,321.827515 360.903473,330.761597 372.878937,335.820648 
	C387.744965,342.100830 398.617493,335.302765 400.152985,319.133179 
	C401.468658,305.277863 399.020721,291.935608 395.468628,278.673492 
	C394.779877,276.102020 393.669495,274.844330 390.720184,274.761810 
	C385.909027,274.627228 381.452362,273.181732 379.098938,268.386932 
	C377.122803,264.360840 377.066040,260.320984 379.874329,256.616699 
	C383.208282,252.219025 389.960480,250.299438 395.711609,251.912979 
	C400.515289,253.260696 403.252350,256.547180 404.507629,261.215668 
	C405.664886,265.519897 403.761444,268.957550 400.544434,271.258575 
	C397.258850,273.608643 398.045837,275.425018 399.841461,278.135742 
	C406.836456,288.695496 414.339325,298.888794 422.207123,308.792511 
	C426.053253,313.633911 431.363953,317.091644 436.745331,320.010529 
	C447.731445,325.969421 458.586273,323.642517 466.769531,314.088928 
	C471.161255,308.961792 474.055115,302.964996 476.410248,296.713318 
	C481.110840,284.235748 484.723053,271.427368 487.806732,258.462860 
	C488.726257,254.596909 488.900604,251.680969 483.821045,250.221832 
	C479.013580,248.840851 476.410522,244.710770 475.992615,239.619095 
	C475.557648,234.319382 477.716156,230.133713 482.276642,227.452209 
	C487.584015,224.331573 493.093353,223.491272 498.846985,226.589493 
	C503.809357,229.261658 506.850433,233.203400 506.831879,238.877350 
	C506.813416,244.514496 503.456848,248.411438 498.463989,250.202393 
	C494.149353,251.750061 493.631470,253.861801 494.667297,257.963165 
	C498.497192,273.128143 501.909515,288.405975 509.021057,302.501312 
	C511.957672,308.321777 515.394714,313.787994 520.125916,318.386810 
	C525.063232,323.185974 530.632446,324.421417 537.088623,322.037079 
	C541.811157,320.292999 546.191772,317.937988 550.250122,314.983917 
	C563.620789,305.251343 574.700623,293.438416 582.884033,278.994659 
	C584.521729,276.104095 585.692749,273.660370 581.908813,271.123260 
	C578.332642,268.725464 576.939392,264.844818 578.201172,260.540344 
	C579.505554,256.090515 582.431946,253.084122 587.038757,251.883499 
	C589.501892,251.241562 591.918030,251.168472 594.437378,251.766220 
	C600.972412,253.316696 605.118347,257.765656 604.941101,263.277100 
	C604.750977,269.188202 599.815552,274.661835 593.198914,274.651764 
	C588.348022,274.644379 587.386292,277.114899 586.521606,280.703888 
	C584.177673,290.432312 582.266479,300.235413 581.625000,310.233734 
	C581.247925,316.110687 581.966980,321.850250 584.637817,327.238678 
	C589.301453,336.647705 598.257263,340.124420 608.010193,336.370178 
	C620.852661,331.426605 630.319580,322.118439 639.541748,312.411652 
	C641.567383,310.279602 640.243652,309.063477 639.173706,307.342316 
	C636.722229,303.398560 637.528992,298.913544 640.971008,296.164978 
	C644.966980,292.974060 650.717529,292.825531 654.377258,295.818695 
	C657.968567,298.755890 658.990540,303.691467 656.647156,307.495697 
	C654.743835,310.585571 651.816528,312.349518 648.237732,311.771759 
	C644.334351,311.141602 642.211182,313.030792 639.871826,315.680237 
	C624.224365,333.401611 611.037170,352.719788 601.706970,374.494415 
	C600.283508,377.816376 598.254395,377.823059 595.499268,377.821106 
	C542.832825,377.783905 490.166351,377.790131 436.999847,377.787384 
z"/>
<path fill="#080908" opacity="1.000000" stroke="none" 
	d="
M546.908691,463.000305 
	C546.909363,457.342163 547.032654,452.179840 546.858765,447.027557 
	C546.772644,444.477051 547.471619,443.583710 550.159973,443.612396 
	C562.970520,443.748932 575.783752,443.743103 588.594788,443.636505 
	C591.194275,443.614899 592.012146,444.422272 591.995300,447.024323 
	C591.892700,462.831268 591.853333,478.639893 592.004028,494.445984 
	C592.033875,497.576996 590.730896,497.883209 588.152649,497.860474 
	C575.674866,497.750336 563.193848,497.694794 550.717896,497.880554 
	C547.570496,497.927460 546.791443,496.962463 546.842163,493.949860 
	C547.012939,483.802490 546.908081,473.650513 546.908691,463.000305 
z"/>
<path fill="#080909" opacity="1.000000" stroke="none" 
	d="
M432.700470,497.817474 
	C419.588867,497.811890 406.950409,497.700226 394.316345,497.886414 
	C391.104126,497.933746 390.026093,497.190613 390.065155,493.808929 
	C390.241882,478.513855 390.213348,463.214966 390.081818,447.918976 
	C390.055542,444.862610 390.578217,443.556244 394.091675,443.620514 
	C406.558044,443.848541 419.032166,443.791656 431.500946,443.643250 
	C434.270569,443.610260 435.189880,444.285858 435.164673,447.170868 
	C435.027924,462.799438 435.112000,478.429901 435.050629,494.059418 
	C435.044952,495.502411 435.927338,497.641754 432.700470,497.817474 
z"/>
</svg>